<?xml version="1.0" encoding="utf-8"?>
<!-- Generator: Adobe Illustrator 24.2.3, SVG Export Plug-In . SVG Version: 6.00 Build 0)  -->
<svg version="1.1" id="Layer_1" xmlns="http://www.w3.org/2000/svg" xmlns:xlink="http://www.w3.org/1999/xlink" x="0px" y="0px"
	 viewBox="0 0 581.3 554.2" style="enable-background:new 0 0 581.3 554.2;" xml:space="preserve">
<style type="text/css">
	.st0{display:none;fill:#FDFDFD;}
	.st1{fill:url(#SVGID_1_);}
	.st2{fill:url(#SVGID_2_);}
	.st3{fill:#E5E321;}
	.st4{fill:#E5E320;}
	.st5{fill:#E5E322;}
	.st6{fill:#FFFFFF;}
</style>
<g>
	<path class="st0" d="M-246.4,878.7c0-341.2,0-682.5,0-1023.8c341.3,0,682.7,0,1024,0c0,341.2,0,682.4,0,1023.8
		C436.3,878.7,94.9,878.7-246.4,878.7z M99.6,32.6c0.7,0.5,1.5,0.8,2.1,1.4c2.3,2.5,4.5,5.2,6.7,7.8c-2.5,2-5,4-7.5,6
		c-0.5,0.4-1.2,0.6-1.8,0.9C67.7,62.7,36.5,76.9,5.2,91.1c-1.5,0.7-2.9,1.8-4.8,3.1c1.9,1.6,3,2.7,4.3,3.7c4.9,3.7,4.9,5.4-0.5,8.7
		c-7.3,4.4-14.6,8.7-21.9,13c-2.9,1.7-5.7,3.6-8.7,5.5c16.5,2.4,32.4,4.7,48.3,6.8c1.9,0.3,4.3-0.1,5.8-1.1
		c16.7-10.9,33.3-22.1,50-33.1c2-1.3,4.5-2.6,6.8-2.9c9.4-1.3,16.8-6.8,24.5-11.6c2.9-1.8,5.4-4.4,7.8-6.8c1.4-1.4,2-3.9,3.6-4.9
		c13.7-8.8,27.6-17.4,41.5-26c17.7-11,35.4-21.9,52.9-33.1c9.7-6.2,18.9-6.5,28.9-0.2c21.1,13.3,42.7,25.9,64,39
		c11.3,6.9,23,13.2,33.1,22.1c5.5,4.9,11.8,10.1,18.7,11.9c14.8,3.9,27.2,11.7,39.2,20.3c8.1,5.8,15.9,8.5,25.9,5.5
		c7.8-2.4,16-3.2,24.1-4.7c0-0.4,0.1-0.7,0.1-1.1c-17.1-8.8-34.2-17.5-52.4-26.8c5.1-3.8,9.3-6.9,14.6-10.7
		c-31.8-14.4-62.3-28.1-93.9-42.4c5.4-3,9.7-5.4,14.9-8.2c-9.2-4.3-17.1-7.9-24.9-11.7c-24.4-11.8-48.8-23.7-73.3-35.5
		c-1.5-0.7-3.9-0.8-5.4-0.1C191.6-12.1,155,6.2,118.2,24.4c-3.8,1.9-8,3.1-12,4.6c2.8-2.3,7.3-4.3,7.9-7.1c0.9-4.4,3.9-5.3,6.6-7
		c12.8-8.1,25.7-16.1,38.5-24.1c17.6-11,35.4-21.9,52.9-33.2c10-6.5,19.3-6.9,29.7-0.4c21.1,13.3,42.7,26,64,39
		c12.3,7.5,24.8,14.6,35.6,24.5c5.5,5,13.5,7.5,20.4,10.8c6,2.9,12.4,4.9,18.2,8.1c8.7,4.9,16.8,10.8,25.4,15.9
		c2.3,1.4,5.7,2,8.3,1.6c10.2-1.5,20.3-3.5,30.5-5.4c0.8-0.1,1.5-0.7,3-1.3c-17.8-9.1-34.9-17.9-53-27.1c5.2-3.8,9.3-6.8,14.6-10.6
		c-31.7-14.3-62.3-28.1-94-42.4c5.3-2.9,9.6-5.2,15-8.2c-9.2-4.3-17.2-8-25.1-11.8c-24.4-11.8-48.8-23.7-73.3-35.5
		c-1.5-0.7-3.9-0.7-5.4,0c-38.4,18.9-76.7,37.9-115,57c-3.9,1.9-7.8,4.1-11.8,6.2c9.1,9.5,9.1,10.3-1.4,15
		C66.7,7.4,35.2,21.5,3.9,35.8c-1.7,0.8-3.3,1.9-5.6,3.3c2.4,2,4.2,3.4,6,4.9C7,46.1,7.1,48.3,4,50.3c-2.5,1.6-5.1,3.2-7.7,4.7
		c-8.2,4.9-16.4,9.8-24.7,14.9c0.7,0.6,0.9,1,1.1,1C-11.1,73,5,75.2,21.2,77.2c1.4,0.2,3.2-0.5,4.4-1.3c16.7-11,33.2-22.2,49.9-33.1
		c2.3-1.5,5.1-2.3,7.7-3.4C88.7,37.1,94.1,34.9,99.6,32.6z M31.3,333.7C24,340,16.7,346.3,9.5,352.8C5,356.9,0,358-5.7,356.3
		c-23.8-7-47.3-6.6-70.6,2.2c-5.9,2.2-11,1.2-15.8-2.8c-9.6-8-19.4-15.8-29.1-23.6c-2.1-1.7-4.3-3.4-7.3-5.7
		c1.3,18.6,2.5,36.1,3.7,53.5c0.6,8.5-1.2,16.1-7.1,22.6c-5.2,5.8-5.4,11.2-1.1,17.8c2.3,3.5,4.9,6.8,7.5,10
		c13.2,16.2,28.6,29.2,49.2,35c5.9,1.7,11.6,3.9,17.5,5.9c-5.7,7.1-11.6,13.7-16.5,20.9c-21.9,32.4-30.3,69.2-33.9,107.4
		c-1.2,12.6-1,25.3-1.4,37.9c-0.2,5.9-1.2,11.5-6.7,14.7c-6.6,3.7-9.2,9.8-10.9,16.6c-1.4,6,0.1,8,6.3,8.2c13.3,0.4,26.6,0.9,40,0.9
		c57.3,0.3,114.7,0.3,172,0.6c43.4,0.3,86.1-4.3,127.1-19.5c5.6-2.1,10.7-0.9,16,1.3c17.7,7.6,36.2,12.3,55.2,15.2
		c26.3,4.1,52.8,3.3,79.3,3.1c103.3-0.5,206.6-1.2,310-1.7c4.2,0,6.1-1.8,5.6-5.6c-0.6-5.3-1.1-10.7-2.8-15.6
		c-4.4-12.1-11-22.6-23.9-27.2c-11.6-4.2-13.9-7.9-15.1-20c-2.7-28-4.9-56.1-9.2-83.8c-5.3-34-17-66-35.4-95.4
		c-3.2-5-2.2-6.3,3.3-7.9c13.4-3.9,26.9-7.5,39.9-12.5c7.1-2.8,13.6-7.8,19.3-12.9c11.1-10,17.3-23.5,23.4-36.9
		c1.9-4.2,3.9-8.5,5.2-13c2.7-9-0.7-14.6-9.7-16.9c-3.2-0.8-6.8-0.6-9.8-1.8c-11-4.3-21.8-9-32.7-13.4c-4.4-1.8-6.9-4.8-8.3-9.2
		c-5.2-16.4-14.3-30.4-27.6-41.4c-0.6-0.5-1-1.4-1.9-2.6c18.3,0.5,28.1,14.2,41.5,25c3.6-12,7.3-22.8,10-33.9
		c3.5-14.7-0.7-23.4-14-30.6c-10.4-5.6-21-10.8-31.7-16c-4.3-2.1-8.9-3.8-13.4-5.4c-5.3-1.8-10.8-1.2-14.4,2.9
		c-7.1,8-14.6,16.1-19.9,25.4c-5.2,9.1-11.5,14.7-21.9,14.4c-9.1-0.3-17.4,1.6-25.6,5.6c-6.2,3-12.6,2.8-17.8-1.9
		c-9.5-8.8-21.2-12.9-33.2-16.5c-4-1.2-7.3-1-10.9,1.2c-14.5,8.9-29.1,17.6-43.6,26.4c-11.1,6.8-18,16.6-20.5,29.4
		c-4.8,24.9,1,48.3,10.4,71.1c2.4,5.8,7.1,7.1,12.8,4.4c2-0.9,3.8-2.1,5.6-3.3c11.9-8.3,21.6-18.7,30.6-30c2.4-3.1,5.3-5.8,8-8.6
		c0.4,0.3,0.8,0.6,1.2,0.9c-2.6,29.8,7.4,55,28.3,75.4c-10.7,8.6-21.4,16.2-31,25.1c-30.6,28.8-53.4,63.4-72.7,100.3
		c-20.4,38.9-36.4,79.6-49,121.7c-0.9,3-1.9,5.2-5.6,5c-18.3-0.8-36.6-2.4-54.1-8.3c-1.4-0.5-2.8-1.1-4.9-2c1.5-1.1,2.3-1.8,3.1-2.2
		c27.5-16.2,49.4-38.3,67.1-64.7c17.3-25.9,27.3-54,24-85.7c-2.8-27-16.1-47.5-41.4-57.8c-25.3-10.4-48.8-4.3-69.3,13.1
		c-9.1,7.7-16.3,17.3-18.7,29.4c-1.2,5.9,2.6,12.3,8.5,15c5.5,2.5,11.3,1.4,15.3-3.5c2.3-2.8,4.1-6,6.2-9
		c7.8-11.1,17.5-19.4,31.8-19.9c22.2-0.8,39.9,16.6,40,39.6c0.1,22.2-7.9,42.1-18.7,60.9c-17,29.5-43,48.9-73.1,63.7
		c-9.5,4.7-17.8,7.1-26-1.8c-0.3-0.4-0.8-0.5-1.3-0.8c-27.6-15-49-36.5-65.9-62.7c-13.1-20.4-20.9-42.4-19.3-67
		c1.4-21.7,18.8-39.1,38.7-39c12.8,0.1,21.7,7.4,29.6,16.4c2.9,3.2,5.4,6.8,8.7,9.6c4.9,4.2,10.3,3.7,15.9-0.7
		c5.5-4.3,7.1-9.5,4.7-15.3c-9.3-22.6-35-39.8-59.5-39.8c-29.1-0.1-56.6,21.9-64.1,51.7c-5.4,21.1-3.2,42.1,3.6,62.5
		c12.7,37.8,36.5,67.7,67.3,92.5c5.6,4.5,11.6,8.7,17.9,13.5c-1.5,0.7-2.3,1.1-3.2,1.4c-21.2,6.2-42.8,9.7-65,9.6
		c-6.1,0-8.8-2.8-9.9-9.2c-1.5-8.9-1.9-18.2-4.3-26.9c-5.7-20-11.5-40-18.9-59.4c-10.7-28.2-26.4-53.5-49.3-73.7
		c-7.1-6.2-14.8-11.8-22.5-17.8c1.4-0.9,2.8-1.7,4.2-2.6c13.5-8,25.1-18.1,34.4-30.8c10.4-14.3,10.5-17.3-1.1-30.8
		c-5.8-6.7-8.3-14.2-8.2-22.9c0.2-13,0.1-26,0.2-39c19.8-0.1,39.6-0.1,59.5-0.2c12.9,0,13.3,0.7,8.3,12.5
		c-5.2,12.4-7.7,25.3-8.3,39.6c8.2-1.8,15.8-3.2,23.2-5.2c1.6-0.5,3.4-2.9,3.9-4.8c2.3-9.5,3.4-19.4,6.3-28.7
		c8.4-27,25.6-45.8,53.2-54.4c38.3-12,94.2,2.9,117.7,48.9c6.5,12.7,10.2,25.9,9.7,40.3c-0.2,6.1,0,12.4,1,18.4
		c2.4,14.5,10.2,25.6,23.4,34.2c0.7-3.8,1.5-6.8,1.7-9.8c1.4-23.5-1.8-46.4-8.5-68.9c-3.5-11.8-3.4-11.8,9-13.7
		c3.6-0.5,4.5-2.6,2.6-5.9c-1.3-2.1-2.3-4.4-3.2-6.7c-3-7.4-9.3-12-16.3-10.4c-7,1.6-10.7-1.3-14.6-6.5c-5.3-7-10.7-14.2-17.4-19.8
		c-40.4-33.9-110.2-36.4-151.4,7.3c-8,8.4-17.4,12-29,11.8c-26.2-0.6-52.3-0.7-78.5-0.8c-2.7,0-6.2,1-8,2.8
		C24.5,318,26.6,330,31.3,333.7z M437.5,142.4c-38.9-18.5-76.5-36.4-114.9-54.8c5.3-3.3,9.7-6.1,14.9-9.4
		c-10.2-5-19.4-9.4-28.4-13.9c-25.8-12.8-51.5-25.8-77.4-38.5c-1.6-0.8-4.2-0.6-5.8,0.2c-4.6,2.2-9,5.1-13.5,7.5
		c-29.9,15.7-59.9,31.4-89.8,47.1c-8.5,4.5-16.9,9.2-25.7,13.9c1.8,2.3,3.3,4.1,4.6,5.9c2.6,3.5,2.4,6.4-1.7,8.6
		c-1.2,0.6-2.3,1.4-3.5,2C60,129.1,23.7,147-12.7,164.8c-6.3,3.1-6.6,4-2,9.2c3.8,4.3,3.5,6.8-1.2,10.2c-1.1,0.8-2.2,1.5-3.3,2.2
		c-28.8,18.6-57.7,37.1-86.5,55.8c-1.8,1.2-3.2,3-5.5,5.2c2.4,0.6,3.6,1,4.9,1.3c12.4,2.5,24.8,4.7,37.1,7.5
		c8.6,1.9,10.7,4.8,10.9,13.6c0.3,12.2,0.4,24.3,0.9,36.5c0.3,7.1,2.7,9.9,9.5,11.7c4.8,1.3,9.7,2.3,14.6,3.3
		c5.5,1.2,7.3-0.2,7.7-5.9c1.2-17.8,2.4-35.5,3.5-53.3c0.6-10.7,2.8-13.1,13.6-13.2c21.7-0.2,43.3-0.4,65-0.6
		c34.7-0.3,69.3-0.8,104-1c51.2-0.3,102.3-0.3,153.5-0.5c4.1,0,8.3-0.3,12.4-0.9c14.9-2.2,24.1-11.9,32.3-24.9
		c-121.4,2-241.7,4-362,6.1c-0.1-0.5-0.2-0.9-0.3-1.4c1.6-1.4,3.1-2.9,4.8-4.2c21.2-15.6,42.3-31.3,63.7-46.7c2.7-2,6.4-3.5,9.6-3.6
		c23.1-0.9,46.2-1.6,69.4-2c15.3-0.3,30.6,0.1,46-0.2c30-0.7,59.9-1.8,89.9-2.7c21.6-0.7,43.3-0.6,64.8-2.2
		c25.6-1.9,49.4,1.7,70.6,17.2c10.7,7.9,21.9,15.3,33.1,22.5c2.4,1.5,6,2.2,8.8,1.8c8.2-1.2,16.3-3.1,24.5-4.8
		c5-1.1,10-2.3,16.2-3.7c-1.9-1.1-2.5-1.6-3.2-2c-21.7-11.7-43.4-23.5-65.1-35.2c-5.8-3.1-5.9-4.7-0.7-9.1
		C431.2,148.2,433.8,145.8,437.5,142.4z M226.1,514.4c-6.3-5.8-12-11.5-18.2-16.4c-4.9-3.9-10.2-7.7-16-9.8
		c-11.3-4.1-27.3,3.6-34.9,15.7c-8.4,13.6-5.9,26.9,1.2,40.2c13.6,25.6,34.5,44.6,56.9,62.1c5.8,4.5,11.9,4.8,18.1,1.2
		c5.9-3.4,11.8-6.9,17.5-10.6c27.6-18.3,47.7-41.5,51.4-76.2c2.3-21.7-13.3-37.6-34.7-34.3c-13.5,2.1-24.4,8.5-33.3,18.5
		C231.5,507.7,229,510.9,226.1,514.4z M552,753.8c0.4,0,0.7,0.1,1.1,0.1c2.2,21.1,4.4,42.1,6.6,63.1c7.2,0.5,7.4,0.3,6.6-6.3
		c-1.3-12.1-2.5-24.2-3.8-36.3c-1.3-12.9-2.7-25.7-4.1-38.7c-3,0-5.7,0-8.7,0c-6.8,22.2-13.6,44.5-20.7,67.8
		c-6.7-21.2-13-41.3-19.3-61.4c-2.3-7.4-2.3-7.4-10.6-6c-0.1,0.7-0.3,1.5-0.4,2.3c-2.3,24.5-4.6,49.1-6.9,73.6
		c-0.5,5.3,0,5.6,6.8,4.8c2-21,4.1-42.2,6.1-63.3c0.3-0.1,0.6-0.1,0.9-0.2c6.7,21.3,13.3,42.6,19.9,63.7c6.9,0.4,6.9,0.4,8.6-5.4
		c2.5-8.3,5-16.5,7.5-24.8C545.1,775.8,548.6,764.8,552,753.8z M100.7,774.5c0.9-0.4,1.4-0.5,1.7-0.7c7.5-6.1,10.1-15.9,6.7-25.7
		c-2.7-7.8-9-12.1-19.1-12.3c-9.2-0.2-18.3-0.1-27.5-0.2c-2.6,0-4,0.7-4,3.7c0.1,24.8,0,49.6,0.2,74.5c0,1.2,2.2,3.4,3.3,3.4
		c10.2,0.2,20.3,0.3,30.5-0.2c8.9-0.4,15-5.6,17.1-14.2C112.4,792,111.1,782.2,100.7,774.5z M415.8,750.5c1.5,2,2.3,2.9,3,3.9
		c13,19.9,26,39.8,38.9,59.8c1.7,2.7,4,3.9,6.5,2.7c1.3-0.6,2.2-3.4,2.2-5.1c0.1-23.6,0.1-47.3,0.1-70.9c0-5.6-0.7-6-7.2-4.4
		c0,21.5,0,43.1,0,66.1c-1.7-2.5-2.7-3.8-3.6-5.2c-12.4-19.1-24.8-38.2-37.2-57.3c-0.6-1-1.1-2.4-2-2.8c-1.8-0.8-3.9-1.4-5.8-1.3
		c-0.8,0.1-1.9,2.5-1.9,3.8c-0.1,24.5-0.1,49-0.1,73.4c0,2.6,0.5,4,3.5,4.1c3.4,0.1,3.7-1.7,3.7-4.4c-0.1-14.7,0-29.3,0-44
		C415.8,763.2,415.8,757.4,415.8,750.5z M116,775.7c1,8.5,1.4,16,2.7,23.3c1.8,9.8,7.1,17.2,17.6,18.4c7.2,0.8,14.7,0.8,21.9,0
		c9-0.9,14.9-6.5,17.2-15.2c4.5-17.2,4.4-34.7-0.2-51.8c-2.7-10.1-9.6-14.9-20.2-15.5c-4.8-0.3-9.7-0.3-14.5,0
		c-11.2,0.6-18.1,5.7-20.9,16.7C117.7,759.7,117.1,768.2,116,775.7z M-188.2,736c-9.3,25.1-18.8,50.4-28.2,75.8
		c-0.6,1.8-2.8,4.4,0.8,5.2c2.5,0.6,5.4,1.1,6.6-3c2.2-7.4,5.1-14.7,7.9-22.2c10.1,0,20.1-0.1,30.1,0.1c1.2,0,2.9,1.8,3.4,3.2
		c2.3,6,4.6,12.1,6.3,18.4c1.1,4.2,3.9,4.4,6.7,3.6c3.9-1,1.3-3.8,0.7-5.6c-8.3-23.5-16.8-46.9-24.9-70.4
		C-180.5,736.3-182.7,734.5-188.2,736z M35.3,791.9c2.7,7.8,5.5,15.2,7.9,22.8c1.3,4,4.2,2.3,6.5,2.2c0.3,0,1.1-3.1,0.7-4.4
		c-8.7-24.7-17.5-49.4-26.5-74.1c-0.5-1.3-2.6-2.3-4.2-2.8c-2.2-0.6-3.9,0-4.9,2.7c-9.1,24.9-18.4,49.8-27.7,74.7
		c-1,2.8-0.5,4,2.6,4.2c2.8,0.2,4.5-0.5,5.4-3.6c2.3-7.4,5.1-14.6,7.7-21.8C13.8,791.9,24.3,791.9,35.3,791.9z M395.1,817
		c8.2,0.5,8.2,0.5,5.6-6.7c-8.4-23.6-16.8-47.2-25.2-70.9c-0.9-2.6-1.9-4.1-5.1-4c-3,0-3.9,1.4-4.8,3.8c-9,24.3-18,48.5-26.9,72.9
		c-0.5,1.4,0.1,4.8,0.5,4.8c2.5,0.3,5.5,1.7,6.8-2.6c1.9-6.5,4.4-12.9,6.9-19.2c0.5-1.3,2.2-3.1,3.4-3.1c10-0.3,19.9-0.1,30-0.1
		C389.2,800.3,392.1,808.6,395.1,817z M588.9,791.8c10,0,19.5,0.1,29-0.1c2.6,0,3.8,0.8,4.6,3.3c2,6.3,4.5,12.5,6.3,18.9
		c1.1,3.9,3.9,3.9,6.5,3.2c3.9-1,1.4-3.8,0.8-5.6c-8.2-23.3-16.7-46.6-24.7-70c-1.7-5-3.9-7.4-9.5-5.5c-0.3,0.8-0.8,1.8-1.2,2.9
		c-9,24.3-18.1,48.5-27,72.9c-0.6,1.5,0.1,5,0.6,5.1c2.5,0.5,5.4,1.4,6.6-2.8C583.2,806.6,586.2,799.4,588.9,791.8z M194.8,736.4
		c-6.5-1.6-7.1-1.1-7.1,4.5c0,14.7-0.3,29.3,0.2,44c0.2,6.6,1.2,13.3,3,19.6c2.5,8.5,8.9,13.1,17.8,13.4c5.5,0.2,11,0.3,16.5,0
		c8.4-0.5,14.5-4.6,17.5-12.6c1.3-3.5,2.7-7.3,2.8-11c0.6-17.8,0.7-35.6,1-53.4c0.1-5.5-0.8-6-7.1-4.3c0,1.7,0,3.5,0,5.3
		c0,12.3,0.2,24.7-0.1,37c-0.1,6.5-0.6,13-1.9,19.3c-1.8,8.9-6.8,12.6-15.9,12.8c-3.8,0.1-7.7,0.1-11.5-0.1c-7-0.4-10.6-3.3-12.7-10
		c-0.9-2.8-1.7-5.8-1.7-8.8c-0.4-16.7-0.5-33.3-0.8-50C194.8,740.2,194.8,738.2,194.8,736.4z M701.3,817.1
		c11.7,0.2,23.5,1.1,35.2,0.4c9.2-0.6,13.9-7.1,14.2-16.4c0.2-4.2,0.2-8.3-0.1-12.5c-0.5-8.8-5.7-14.1-14.5-14.7
		c-4-0.3-8-0.2-12-0.2c-16.7-0.1-19.5-0.1-18-20.8c0.5-7.9,4.1-11,12-11c8.2,0,16.3,0.4,24.5,0.7c5.2,0.2,5.6-0.2,4.3-6.4
		c-10.3-0.4-20.7-1.4-31.2-1.2c-9.5,0.2-15.1,5.5-16.4,14.9c-0.8,5.6-0.8,11.3-0.3,16.9c0.7,7.8,4.8,11.9,12.7,13.1
		c5.1,0.8,10.3,0.8,15.4,0.8c15.4,0.1,16.7,1.4,16.6,16.9c-0.1,9.2-3.7,13.1-13,13.2c-8.3,0.1-16.7-0.1-25-0.6
		C701.5,810,700.2,811.5,701.3,817.1z M276.3,742.8c0,8,0,15.4,0,22.9c0,15.7,0.1,31.3-0.1,47c0,3.4,1,5.5,4.4,4.4
		c1.3-0.4,2.7-3,2.7-4.6c0.2-21.3,0.1-42.6,0.1-64c0-1.8,0-3.5,0-5.6c7.5,0,14.5-0.1,21.5,0c2.7,0,4.5-0.5,4.5-3.7
		c0-3.5-2.1-3.5-4.6-3.5c-16.5,0-33,0-49.5,0c-2.7,0-4.5,0.3-4.5,3.7c0.1,3.4,2,3.6,4.6,3.6C262.3,742.8,269.1,742.8,276.3,742.8z
		 M-146.3,771.9c0,10.1-0.1,20.3,0,30.4c0.1,9.9,4.4,14.5,14.2,14.7c10,0.3,20,0.1,29.9,0.2c2.7,0,4.5-0.4,4.5-3.7
		c-0.1-3.4-2.1-3.6-4.7-3.6c-8.7,0.1-17.3,0-26,0c-9.5,0-10.8-1.3-10.8-11c0-19.6,0-39.3,0-58.9c0-2.5,0.1-4.6-3.5-4.6
		c-3.3,0-3.7,1.8-3.7,4.5C-146.3,750.6-146.3,761.3-146.3,771.9z M-83.2,771c0-10.5,0-21,0-31.4c0-2.5-0.4-4.1-3.5-4.1
		c-2.8,0.1-3.7,1.2-3.7,3.9c0.1,21.3-0.1,42.6,0.1,63.9c0.1,8.9,4.6,13.5,13.6,13.7c10.1,0.3,20.3,0.1,30.4,0.2
		c2.7,0,4.5-0.4,4.5-3.7c-0.1-3.4-2-3.6-4.6-3.6c-8.8,0.1-17.6,0-26.5,0c-8.9,0-10.3-1.5-10.3-10.5C-83.2,790-83.2,780.5-83.2,771z
		 M644.7,771.5c0,10.5-0.1,21,0,31.4c0.1,9.3,4.5,13.9,13.7,14.2c10.1,0.3,20.3,0.1,30.4,0.2c2.7,0,4.5-0.5,4.4-3.8
		c-0.1-3.4-2.2-3.6-4.7-3.5c-6.2,0.1-12.3,0.1-18.5,0c-17.9-0.1-18.5,2.5-18.3-18.1c0.1-17.3,0-34.6,0-51.9c0-2.5,0-4.6-3.5-4.5
		c-3.4,0-3.7,1.9-3.7,4.5C644.7,750.5,644.7,761,644.7,771.5z M483.8,776.4c0-12,0-24,0-36c0-2.6,0.3-5-3.7-4.9
		c-3.5,0.1-3.5,2.2-3.5,4.7c0,24.1,0,48.3,0,72.4c0,2.5,0.1,4.5,3.5,4.6c4,0.1,3.6-2.4,3.6-4.9C483.8,800.4,483.8,788.4,483.8,776.4
		z"/>
	<linearGradient id="SVGID_1_" gradientUnits="userSpaceOnUse" x1="46.6338" y1="344.7722" x2="326.7595" y2="344.7722">
		<stop  offset="0" style="stop-color:#000000"/>
		<stop  offset="1" style="stop-color:#FFFFFF"/>
	</linearGradient>
	<path class="st1" d="M342.6,335.3c-1.6-15.4-9.1-27-23.5-32.9c-14.4-5.9-27.7-2.4-39.4,7.5c-5.2,4.4-9.2,9.8-10.6,16.7
		c-0.7,3.4,1.5,7,4.8,8.5c3.1,1.4,6.4,0.8,8.7-2c1.3-1.6,2.3-3.4,3.5-5.1c4.4-6.3,9.9-11,18-11.3c12.6-0.5,22.7,9.4,22.7,22.5
		c0.1,12.6-4.5,23.9-10.6,34.6c-9.7,16.8-24.4,27.8-41.5,36.2c-1.7,0.9-3.4,1.5-5,2c-0.2,0.2-0.4,0.4-0.6,0.5
		c-0.1,0.1-0.3,0.1-0.4,0.2c-0.1,0.1-0.3,0.2-0.5,0.3c-6.4,2.6-12.8,6-19.6,7.6c-1.1,0.5-2.3,0.9-3.5,1c-0.1,0-0.2,0.1-0.3,0.1
		c-12,3.5-24.3,5.5-36.9,5.4c-3.4,0-5-1.6-5.6-5.2c-0.9-5.1-1.1-10.3-2.5-15.3c-3.2-11.4-6.6-22.7-10.7-33.8
		c-6.1-16-15-30.4-28-41.8c-4-3.5-8.4-6.7-12.8-10.1c0.8-0.5,1.6-1,2.4-1.5c7.7-4.5,14.3-10.3,19.5-17.5c5.9-8.1,6-9.8-0.6-17.5
		c-3.3-3.8-4.7-8.1-4.6-13c0.1-7.4,0.1-14.8,0.1-22.2c-2.4-0.1-4.8-0.1-7.2-0.2c-4.1,3.6-8.3,7.2-12.4,10.9c-2.6,2.3-5.4,2.9-8.7,2
		c-13.5-4-26.9-3.8-40.1,1.2c-3.3,1.3-6.2,0.7-9-1.6c-5.5-4.5-11-9-16.5-13.4c-1.2-1-2.4-1.9-4.1-3.3c0.7,10.6,1.4,20.5,2.1,30.4
		c0.4,4.8-0.7,9.1-4,12.9c-2.9,3.3-3,6.4-0.6,10.1c1.3,2,2.8,3.8,4.3,5.7c7.5,9.2,16.2,16.6,27.9,19.9c3.3,0.9,6.6,2.2,10,3.4
		c-3.2,4.1-6.6,7.8-9.4,11.9c-12.4,18.4-17.2,39.3-19.3,61c-0.7,7.1-0.6,14.4-0.8,21.6c-0.1,3.4-0.7,6.5-3.8,8.3
		c-3.7,2.1-5.2,5.6-6.2,9.4c-0.8,3.4,0.1,4.6,3.6,4.7c7.6,0.2,15.1,0.5,22.7,0.5c32.6,0.1,65.1,0.2,97.7,0.3
		c23.9,0.1,47.5-2.3,70.1-10.3c0.3-0.2,0.7-0.4,1.1-0.6c1.7-0.6,3.3-1.2,5-1.8c2.7-1.3,5.6-2.5,8.4-3.3c2.6-1.1,5.1-2.3,7.6-3.5
		c0.5-0.3,1.1-0.7,1.6-1c0.6-0.3,1.2-0.6,1.8-0.8c0.6-0.3,1.1-0.6,1.6-1c0.6-0.5,1.4-1.1,1.5-1.2c0.4-0.3,0.7-0.5,1.1-0.6
		c15.5-9.2,27.9-21.7,37.9-36.6C338.8,369.3,344.5,353.3,342.6,335.3z"/>
	<linearGradient id="SVGID_2_" gradientUnits="userSpaceOnUse" x1="193.2527" y1="308.3923" x2="530.2623" y2="308.3923">
		<stop  offset="0" style="stop-color:#FFFFFF"/>
		<stop  offset="0.8957" style="stop-color:#000000"/>
	</linearGradient>
	<path class="st2" d="M479.9,298.5c7.6-2.2,15.3-4.2,22.7-7.1c4-1.6,7.7-4.4,11-7.3c6.3-5.7,9.8-13.3,13.3-20.9
		c1.1-2.4,2.2-4.8,2.9-7.4c1.5-5.1-0.4-8.3-5.5-9.6c-1.8-0.5-3.8-0.3-5.6-1c-6.2-2.4-12.4-5.1-18.6-7.6c-2.5-1-3.9-2.7-4.7-5.3
		c-3-9.3-8.1-17.3-15.7-23.5c-0.4-0.3-0.6-0.8-1.1-1.5c10.4,0.3,15.9,8.1,23.6,14.2c2-6.8,4.2-13,5.7-19.3c2-8.4-0.4-13.3-8-17.4
		c-5.9-3.2-11.9-6.2-18-9.1c-2.5-1.2-5-2.2-7.6-3c-3-1-6.1-0.7-8.2,1.7c-4.1,4.6-8.3,9.2-11.3,14.4c-3,5.2-6.5,8.4-12.4,8.2
		c-5.2-0.2-9.9,0.9-14.5,3.2c-3.5,1.7-7.1,1.6-10.1-1.1c-5.4-5-12-7.3-18.9-9.4c-2.3-0.7-4.1-0.6-6.2,0.7c-8.2,5-16.5,10-24.8,15
		c-6.3,3.9-10.2,9.4-11.6,16.7c-2.7,14.1,0.5,27.4,5.9,40.4c1.4,3.3,4,4,7.3,2.5c1.1-0.5,2.2-1.2,3.2-1.9c6.7-4.7,12.3-10.6,17.4-17
		c1.4-1.7,3-3.3,4.6-4.9l0.7,0.5c-1.5,16.9,4.2,31.2,16.1,42.8c-6.1,4.9-12.2,9.2-17.6,14.3c-17.4,16.3-30.3,36-41.3,57
		c-11.6,22.1-20.7,45.2-27.8,69.1c-0.5,1.7-1.1,3-3.2,2.9c-10.4-0.5-20.8-1.4-30.8-4.7c-0.4-0.1-0.8-0.3-1.2-0.5
		c-0.4,0-0.8-0.1-1.1-0.3c-0.4,0-0.7-0.2-0.9-0.3c-0.4,0-0.8-0.1-1.2-0.3c-0.1,0-0.3-0.1-0.4-0.1c-1.7-0.2-3.3-0.8-4.9-1.3
		c-2.5-0.7-4.8-1.5-7.2-2.6c-0.2-0.1-0.3-0.2-0.5-0.3c-0.5-0.1-0.9-0.3-1.2-0.7c-3.6-1.3-6.8-3-10-5.2c-0.9-0.4-1.7-1-2.6-1.8
		c-0.3-0.1-0.6-0.3-0.8-0.6c0,0-0.1-0.1-0.1-0.1c-0.5-0.2-1-0.5-1.2-0.9c-15.4-8.5-27.4-20.6-36.8-35.3c-7.4-11.6-11.9-24.1-11-38
		c0.8-12.3,10.7-22.2,22-22.1c7.3,0.1,12.3,4.2,16.8,9.3c1.6,1.8,3.1,3.9,4.9,5.4c2.8,2.4,5.8,2.1,9.1-0.4c3.2-2.4,4.1-5.4,2.7-8.7
		c-5.3-12.8-19.9-22.6-33.8-22.6c-16.5,0-32.1,12.4-36.4,29.4c-3,12-1.8,23.9,2,35.5c7.2,21.5,20.8,38.5,38.2,52.5
		c2.7,2.2,5.5,4.2,8.5,6.4c0.3,0.1,0.5,0.2,0.7,0.4c0.1,0.1,0.2,0.2,0.3,0.2c0.4,0.3,0.9,0.6,1.3,0.9c0.8,0.6,1.6,1.1,2.4,1.7
		c0.3,0.1,0.6,0.2,0.8,0.4c0.8,0.4,1.6,0.8,2.4,1.2c5.8,2.9,11.1,6.7,17.1,9.2c0.9,0.2,1.7,0.5,2.6,0.9c10.1,4.3,20.6,7,31.4,8.7
		c15,2.3,30,1.8,45.1,1.8c58.7-0.3,117.4-0.7,176.1-1c2.4,0,3.5-1,3.2-3.2c-0.3-3-0.6-6.1-1.6-8.9c-2.5-6.8-6.3-12.8-13.6-15.5
		c-6.6-2.4-7.9-4.5-8.6-11.3c-1.5-15.9-2.8-31.9-5.2-47.6c-3-19.3-9.7-37.5-20.1-54.2C476.2,300.1,476.7,299.4,479.9,298.5z"/>
	<path class="st3" d="M389.7,140.3c-2.1,1.9-3.6,3.3-5.1,4.6c-3,2.5-2.9,3.4,0.4,5.2c12.3,6.7,24.6,13.3,37,20
		c0.4,0.2,0.8,0.5,1.8,1.1c-3.5,0.8-6.3,1.5-9.2,2.1c-4.6,1-9.2,2.1-13.9,2.8c-1.6,0.2-3.7-0.1-5-1c-6.4-4.1-12.7-8.3-18.8-12.8
		c-12.1-8.8-25.6-10.9-40.1-9.8c-12.2,0.9-24.5,0.9-36.8,1.3c-17,0.5-34,1.1-51.1,1.5c-8.7,0.2-17.4,0-26.1,0.1
		c-13.1,0.3-26.3,0.6-39.4,1.1c-1.9,0.1-3.9,0.9-5.5,2.1c-12.1,8.7-24.1,17.6-36.2,26.5c-1,0.7-1.8,1.6-2.7,2.4
		c0.1,0.3,0.1,0.5,0.2,0.8c68.3-1.1,136.7-2.3,205.6-3.4c-4.7,7.4-9.9,12.9-18.4,14.2c-2.3,0.3-4.7,0.5-7.1,0.5
		c-29.1,0.1-58.1,0.1-87.2,0.3c-19.7,0.1-39.4,0.4-59.1,0.6c-12.3,0.1-24.6,0.2-36.9,0.3c-6.1,0.1-7.4,1.4-7.7,7.5
		c-0.6,10.1-1.3,20.2-2,30.3c-0.2,3.3-1.2,4-4.4,3.4c-2.8-0.6-5.6-1.1-8.3-1.9c-3.8-1-5.2-2.6-5.4-6.6c-0.3-6.9-0.3-13.8-0.5-20.7
		c-0.1-5-1.3-6.6-6.2-7.7c-7-1.6-14.1-2.8-21.1-4.2c-0.7-0.1-1.4-0.4-2.8-0.7c1.3-1.2,2.1-2.3,3.1-3c16.4-10.6,32.8-21.1,49.2-31.7
		c0.6-0.4,1.3-0.8,1.9-1.3c2.7-1.9,2.8-3.4,0.7-5.8c-2.6-3-2.4-3.5,1.1-5.2c20.6-10.1,41.3-20.3,61.9-30.5c0.7-0.3,1.3-0.8,2-1.1
		c2.3-1.3,2.4-2.9,1-4.9c-0.8-1-1.6-2-2.6-3.4c5-2.7,9.8-5.4,14.6-7.9c17-8.9,34-17.8,51-26.8c2.6-1.4,5-3,7.7-4.3
		c0.9-0.4,2.4-0.5,3.3-0.1c14.7,7.2,29.3,14.6,44,21.9c5.1,2.6,10.3,5,16.1,7.9c-3,1.9-5.5,3.4-8.5,5.3
		C346.2,119.6,367.6,129.8,389.7,140.3z M340,141c0-0.4,0.1-0.7,0.1-1.1c-0.3-0.3-0.6-0.7-1-0.9c-19.9-12.9-39.9-25.8-59.7-38.9
		c-5.9-3.9-11.2-3.9-17,0.2c-15,10.6-30.2,20.9-45.3,31.3c-4.4,3-8.7,6-13,9.1c-0.6,0.4-0.9,1.3-1.3,1.9c0.7,0.3,1.5,0.6,2.2,0.8
		c0.5,0.1,1.1,0,1.7,0c22.3-0.5,44.7-1,67-1.5c18.4-0.4,36.7-0.6,55.1-0.9C332.6,141,336.3,141,340,141z"/>
	<path class="st3" d="M201.5,75.9c2.3-0.9,4.6-1.5,6.8-2.6c20.9-10.3,41.7-20.7,62.6-31c0.8-0.4,2.2-0.4,3.1,0
		c13.9,6.7,27.8,13.4,41.6,20.1c4.4,2.1,8.9,4.2,14.1,6.6c-3,1.6-5.4,3-8.5,4.7c17.9,8.1,35.3,15.9,53.3,24.1
		c-3,2.2-5.4,3.9-8.3,6.1c10.3,5.3,20,10.3,29.8,15.2c0,0.2,0,0.4,0,0.6c-4.6,0.9-9.3,1.3-13.7,2.7c-5.7,1.7-10.1,0.2-14.7-3.1
		c-6.8-4.9-13.9-9.3-22.3-11.5c-3.9-1-7.5-4-10.6-6.7c-5.7-5.1-12.4-8.6-18.8-12.6c-12.1-7.4-24.3-14.6-36.4-22.1
		c-5.7-3.6-10.9-3.4-16.4,0.1c-10,6.4-20,12.6-30.1,18.8c-7.9,4.9-15.8,9.8-23.6,14.8c-0.9,0.6-1.3,2-2.1,2.8
		c-1.4,1.4-2.8,2.8-4.4,3.9c-4.4,2.7-8.5,5.9-13.9,6.6c-1.3,0.2-2.7,0.9-3.9,1.7c-9.5,6.2-18.9,12.6-28.4,18.8
		c-0.9,0.6-2.2,0.8-3.3,0.7c-9-1.2-18.1-2.5-27.5-3.9c1.7-1.1,3.3-2.1,5-3.1c4.1-2.5,8.3-4.9,12.4-7.4c3-1.9,3.1-2.8,0.3-4.9
		c-0.7-0.6-1.4-1.2-2.5-2.1c1.1-0.7,1.9-1.4,2.7-1.8c17.8-8.1,35.5-16.1,53.3-24.1c0.3-0.2,0.7-0.3,1-0.5c1.4-1.1,2.8-2.3,4.3-3.4
		c-1.3-1.5-2.5-3-3.8-4.4c-0.3-0.3-0.8-0.5-1.2-0.8C199,77.3,200.2,76.6,201.5,75.9z"/>
	<path class="st3" d="M201.5,75.9c-1.3,0.7-2.5,1.4-3.8,2.1c-3.1,1.3-6.2,2.5-9.3,3.8c-1.5,0.6-3.1,1-4.4,1.9
		c-9.5,6.2-18.9,12.6-28.4,18.8c-0.7,0.5-1.7,0.9-2.5,0.8c-9.2-1.1-18.3-2.4-27.5-3.6c-0.1,0-0.3-0.2-0.6-0.6
		c4.7-2.8,9.4-5.6,14-8.4c1.5-0.9,2.9-1.7,4.3-2.7c1.7-1.1,1.7-2.3,0.1-3.6c-1-0.8-2-1.6-3.4-2.8c1.3-0.8,2.2-1.4,3.2-1.9
		c17.8-8.1,35.7-16.2,53.5-24.2c6-2.7,6-3.1,0.8-8.5c2.3-1.2,4.5-2.4,6.7-3.5c21.8-10.8,43.5-21.6,65.4-32.4c0.8-0.4,2.2-0.4,3.1,0
		c13.9,6.7,27.7,13.4,41.6,20.1c4.5,2.2,9,4.2,14.2,6.7c-3.1,1.7-5.5,3-8.5,4.6c18,8.1,35.4,15.9,53.4,24.1c-3,2.2-5.4,3.9-8.3,6
		c10.3,5.3,20,10.2,30.1,15.4c-0.8,0.4-1.3,0.7-1.7,0.7c-5.8,1.1-11.5,2.2-17.3,3.1c-1.5,0.2-3.4-0.1-4.7-0.9
		c-4.9-2.9-9.5-6.2-14.4-9c-3.3-1.9-6.9-3-10.3-4.6c-4-1.9-8.5-3.3-11.6-6.1c-6.2-5.6-13.2-9.7-20.2-13.9
		c-12.1-7.4-24.4-14.6-36.3-22.1c-5.9-3.7-11.2-3.4-16.9,0.2c-9.9,6.4-20,12.6-30,18.8c-7.3,4.6-14.6,9.1-21.9,13.7
		c-1.5,1-3.2,1.5-3.8,4C205.7,73.5,203.1,74.6,201.5,75.9z"/>
	<path class="st4" d="M269.6,351.7c1.7-2,3-3.8,4.5-5.5c5.1-5.7,11.3-9.4,18.9-10.5c12.2-1.9,21.1,7.1,19.7,19.5
		c-2.1,19.7-13.5,32.9-29.2,43.3c-3.2,2.1-6.6,4.1-9.9,6c-3.6,2.1-7,1.9-10.3-0.7c-12.7-10-24.6-20.7-32.3-35.3
		c-4-7.6-5.5-15.1-0.7-22.8c4.3-6.9,13.4-11.3,19.8-8.9c3.3,1.2,6.3,3.4,9.1,5.6C262.8,345.1,266,348.4,269.6,351.7z"/>
	<path class="st5" d="M166.1,249.2c-2.4-0.1-4.8-0.1-7.2-0.2c-2.7-2.1-3.9-8.9-1.6-11.2c1-1,3-1.6,4.6-1.6c14.9,0,29.7,0.1,44.6,0.5
		c6.6,0.2,12-1.9,16.5-6.7c23.4-24.8,63-23.4,86-4.1c3.8,3.2,6.9,7.3,9.9,11.3c2.2,2.9,4.3,4.6,8.3,3.7c3.9-0.9,7.5,1.7,9.2,5.9
		c0.5,1.3,1.1,2.6,1.8,3.8c1.1,1.8,0.6,3-1.5,3.3c-7.1,1-7.2,1.1-5.1,7.8c3.8,12.8,5.6,25.8,4.8,39.1c-0.1,1.7-0.6,3.4-1,5.6
		c-7.5-4.8-11.9-11.2-13.3-19.4c-0.6-3.4-0.7-7-0.6-10.4c0.3-8.2-1.9-15.7-5.5-22.9c-13.3-26.1-45.1-34.6-66.9-27.8
		c-15.7,4.9-25.4,15.6-30.2,30.9c-1.6,5.3-2.3,10.9-3.6,16.3c-0.3,1.1-1.3,2.5-2.2,2.7c-4.2,1.2-8.6,2-13.2,3
		c0.3-8.1,1.8-15.5,4.7-22.5c2.8-6.7,2.6-7.1-4.7-7.1C188.7,249.1,177.4,249.2,166.1,249.2z"/>
	<path class="st6" d="M454.7,487.7c-1.9,6.3-3.9,12.5-5.8,18.8c-1.4,4.7-2.8,9.4-4.3,14.1c-1,3.3-1,3.3-4.9,3.1
		c-3.8-12-7.5-24.1-11.3-36.2c-0.2,0-0.3,0.1-0.5,0.1c-1.2,12-2.3,24-3.5,35.9c-3.9,0.5-4.2,0.3-3.9-2.7c1.3-13.9,2.6-27.9,3.9-41.8
		c0-0.5,0.2-0.9,0.2-1.3c4.7-0.8,4.7-0.8,6,3.4c3.6,11.4,7.2,22.9,11,34.9c4-13.2,7.9-25.9,11.8-38.5c1.7,0,3.2,0,4.9,0
		c0.8,7.4,1.6,14.7,2.3,22c0.7,6.9,1.4,13.7,2.1,20.6c0.4,3.7,0.3,3.8-3.8,3.6c-1.2-11.9-2.5-23.9-3.8-35.8
		C455.1,487.7,454.9,487.7,454.7,487.7z"/>
	<path class="st6" d="M198.4,499.4c5.9,4.4,6.6,9.9,5.1,16c-1.2,4.9-4.7,7.8-9.7,8.1c-5.8,0.3-11.5,0.2-17.3,0.1
		c-0.7,0-1.9-1.3-1.9-1.9c-0.1-14.1-0.1-28.2-0.1-42.3c0-1.7,0.7-2.1,2.3-2.1c5.2,0.1,10.4-0.1,15.6,0.1c5.8,0.2,9.4,2.6,10.9,7
		c1.9,5.6,0.5,11.1-3.8,14.6C199.2,499.1,198.9,499.2,198.4,499.4z M178.7,519.6c4.5,0,8.7,0.1,13,0c5.3-0.1,7.9-2.6,8.3-7.6
		c0.4-5.5-2.2-9.7-7.1-10.1c-4.6-0.4-9.4-0.1-14.2-0.1C178.7,507.6,178.7,513.4,178.7,519.6z M178.6,497.4c4.9,0,9.5,0.2,14.1,0
		c4.2-0.2,6.6-3,7.1-7.4c0.4-4.1-1.3-7.6-4.7-7.9c-5.4-0.5-11-0.1-16.5-0.1C178.6,486.9,178.6,492,178.6,497.4z"/>
	<path class="st6" d="M377.4,485.7c0,4,0,7.2,0,10.5c0,8.3,0,16.6,0,25c0,1.5-0.1,2.6-2.1,2.5c-1.7-0.1-2-0.9-2-2.4
		c0-13.9,0-27.8,0.1-41.7c0-0.8,0.6-2.1,1.1-2.2c1.1-0.1,2.3,0.3,3.3,0.7c0.5,0.2,0.8,1,1.1,1.6c7,10.9,14.1,21.7,21.1,32.6
		c0.5,0.8,1.1,1.5,2,3c0-13,0-25.3,0-37.5c3.7-0.9,4.1-0.7,4.1,2.5c0,13.4,0,26.9,0,40.3c0,1-0.5,2.6-1.2,2.9
		c-1.4,0.7-2.7,0-3.7-1.6c-7.3-11.4-14.7-22.7-22.1-34C378.7,487.4,378.2,486.9,377.4,485.7z"/>
	<path class="st6" d="M207,500.1c0.6-4.3,1-9.1,2.1-13.7c1.5-6.2,5.5-9.1,11.8-9.5c2.7-0.1,5.5-0.1,8.2,0c6,0.3,9.9,3.1,11.5,8.8
		c2.6,9.8,2.7,19.6,0.1,29.4c-1.3,4.9-4.7,8.1-9.8,8.6c-4.1,0.4-8.3,0.4-12.4,0c-6-0.7-9-4.9-10-10.4
		C207.8,509.2,207.6,504.9,207,500.1z M238.8,500.6c-0.6-4.4-1.1-9-2-13.4c-0.8-4-3.8-6-7.8-6.3c-2.4-0.2-4.9-0.1-7.4-0.1
		c-4.9,0.2-7.5,2.1-8.7,6.9c-2.1,8.4-2,16.9-0.2,25.3c0.8,3.9,3.4,6.4,7.4,6.7c3.2,0.3,6.4,0.3,9.6,0c3.9-0.4,6.5-2.7,7.3-6.5
		C237.8,509.1,238.2,504.9,238.8,500.6z"/>
	<path class="st6" d="M34.2,477.6c3.1-0.9,4.4,0.2,5.3,2.8c4.6,13.4,9.5,26.7,14.2,40c0.4,1,1.8,2.6-0.4,3.2c-1.6,0.4-3.2,0.3-3.8-2
		c-0.9-3.5-2.3-7-3.6-10.4c-0.3-0.8-1.3-1.8-1.9-1.8c-5.7-0.1-11.3-0.1-17.1-0.1c-1.5,4.3-3.2,8.4-4.5,12.6
		c-0.7,2.3-2.3,2.1-3.8,1.7c-2-0.5-0.8-2-0.4-3C23.6,506.2,28.9,491.8,34.2,477.6z M36.3,483.7c-2.8,7.5-5.3,14.4-7.8,21.3
		c5.2,0,10.2,0,15.4,0C41.3,498,38.9,491.2,36.3,483.7z"/>
	<path class="st6" d="M161.2,509.3c-6.2,0-12.2,0-18.4,0c-1.5,4.1-3.1,8.2-4.4,12.4c-0.5,1.8-1.5,2.1-3.1,2
		c-1.8-0.1-2.1-0.8-1.5-2.4c5.3-14.1,10.5-28.3,15.7-42.4c0.6-1.6,1.5-1.9,2.8-1.5c0.9,0.2,2.1,0.8,2.4,1.6
		c5.1,14,10.1,28,15.1,42.1c0.3,0.7-0.2,2.5-0.4,2.5c-1.3,0-3,1.1-3.7-1.2C164.3,517.9,162.7,513.7,161.2,509.3z M159.7,505.1
		c-2.5-7.1-4.9-13.9-7.5-21.4c-2.8,7.6-5.3,14.4-7.9,21.4C149.6,505.1,154.5,505.1,159.7,505.1z"/>
	<path class="st6" d="M365.6,523.5c-1.7-4.8-3.3-9.5-5-14.3c-5.7,0-11.4-0.1-17.1,0.1c-0.7,0-1.7,1-2,1.8c-1.4,3.6-2.8,7.2-3.9,10.9
		c-0.7,2.4-2.4,1.6-3.9,1.5c-0.2,0-0.6-1.9-0.3-2.7c5-13.8,10.2-27.6,15.3-41.4c0.5-1.4,1-2.1,2.7-2.1c1.8,0,2.4,0.8,2.9,2.3
		c4.7,13.4,9.5,26.8,14.3,40.3C370.2,523.8,370.2,523.8,365.6,523.5z M343.7,505.1c5.2,0,10.2,0,15.4,0c-2.5-7-4.9-13.9-7.5-21.3
		C348.8,491.3,346.3,498.1,343.7,505.1z"/>
	<path class="st6" d="M475.7,509.2c-1.6,4.3-3.2,8.4-4.5,12.7c-0.7,2.4-2.3,1.9-3.8,1.6c-0.3-0.1-0.7-2-0.4-2.9
		c5-13.8,10.2-27.6,15.3-41.4c0.2-0.6,0.5-1.2,0.7-1.6c3.2-1.1,4.4,0.3,5.4,3.1c4.6,13.3,9.4,26.5,14,39.7c0.4,1,1.8,2.6-0.4,3.2
		c-1.5,0.4-3.1,0.4-3.7-1.8c-1-3.6-2.5-7.1-3.6-10.7c-0.4-1.4-1.1-1.9-2.6-1.9C486.8,509.3,481.4,509.2,475.7,509.2z M485.1,483.7
		c-2.8,7.6-5.3,14.4-7.9,21.4c5.2,0,10.2,0,15.4,0C490.1,498,487.7,491.2,485.1,483.7z"/>
	<path class="st6" d="M251.8,477.8c0,1,0,2.1,0,3.3c0.1,9.5,0.2,18.9,0.4,28.4c0,1.7,0.5,3.4,1,5c1.2,3.8,3.3,5.4,7.2,5.7
		c2.2,0.1,4.4,0.1,6.5,0c5.2-0.1,8-2.2,9-7.3c0.7-3.6,1-7.3,1.1-11c0.2-7,0-14,0-21c0-1,0-2.1,0-3c3.6-1,4.1-0.7,4.1,2.4
		c-0.1,10.1-0.2,20.2-0.5,30.4c-0.1,2.1-0.8,4.3-1.6,6.3c-1.7,4.5-5.2,6.9-9.9,7.2c-3.1,0.2-6.2,0.1-9.4,0
		c-5.1-0.2-8.7-2.8-10.1-7.6c-1-3.6-1.6-7.4-1.7-11.2c-0.3-8.3-0.1-16.7-0.1-25C247.8,477.1,248.1,476.9,251.8,477.8z"/>
	<path class="st6" d="M539.5,523.6c-0.6-3.2,0.1-4,2.5-3.8c4.7,0.3,9.5,0.4,14.2,0.3c5.3-0.1,7.3-2.3,7.4-7.5
		c0.1-8.8-0.7-9.5-9.4-9.6c-2.9,0-5.9,0-8.8-0.5c-4.5-0.7-6.8-3-7.2-7.4c-0.3-3.2-0.3-6.5,0.2-9.6c0.7-5.3,3.9-8.4,9.3-8.5
		c5.9-0.1,11.9,0.4,17.7,0.7c0.7,3.5,0.5,3.8-2.4,3.7c-4.6-0.2-9.3-0.4-13.9-0.4c-4.5,0-6.5,1.8-6.8,6.2
		c-0.8,11.8,0.7,11.8,10.2,11.8c2.3,0,4.5-0.1,6.8,0.1c5,0.4,8,3.4,8.3,8.4c0.1,2.4,0.1,4.7,0,7.1c-0.2,5.3-2.9,8.9-8.1,9.3
		C552.9,524.2,546.2,523.7,539.5,523.6z"/>
	<path class="st6" d="M298.1,481.4c-4.1,0-8,0-11.8,0c-1.5,0-2.6-0.1-2.6-2c0-1.9,1-2.1,2.5-2.1c9.4,0,18.7,0,28.1,0
		c1.4,0,2.6,0,2.6,2c0,1.9-1,2.1-2.6,2.1c-4,0-7.9,0-12.2,0c0,1.2,0,2.2,0,3.2c0,12.1,0,24.2-0.1,36.3c0,0.9-0.8,2.4-1.5,2.6
		c-2,0.6-2.5-0.6-2.5-2.5c0.1-8.9,0-17.8,0-26.7C298.1,490.2,298.1,485.9,298.1,481.4z"/>
	<path class="st6" d="M58,497.9c0-6,0-12.1,0-18.1c0-1.5,0.2-2.5,2.1-2.5c2,0,2,1.2,2,2.6c0,11.2,0,22.3,0,33.5
		c0,5.5,0.7,6.3,6.2,6.3c4.9,0,9.8,0,14.7,0c1.5,0,2.6,0.1,2.6,2c0,1.9-1,2.1-2.5,2.1c-5.7-0.1-11.3,0.1-17-0.1
		c-5.5-0.2-8-2.8-8.1-8.4C58,509.5,58,503.7,58,497.9z"/>
	<path class="st6" d="M93.9,497.4c0,5.4,0,10.8,0,16.2c0,5.1,0.8,6,5.9,6c5,0,10,0,15,0c1.5,0,2.6,0.1,2.6,2c0,1.9-1,2.1-2.5,2.1
		c-5.8-0.1-11.5,0.1-17.3-0.1c-5.1-0.1-7.7-2.7-7.7-7.8c-0.1-12.1,0-24.2-0.1-36.3c0-1.5,0.5-2.2,2.1-2.2c1.8,0,2,0.9,2,2.3
		C93.9,485.5,93.9,491.5,93.9,497.4z"/>
	<path class="st6" d="M507.4,497.7c0-6,0-11.9,0-17.9c0-1.5,0.2-2.5,2.1-2.6c2,0,2,1.1,2,2.6c0,9.8,0.1,19.7,0,29.5
		c-0.1,11.7,0.2,10.2,10.4,10.3c3.5,0,7,0,10.5,0c1.5,0,2.6,0.1,2.7,2c0,1.9-0.9,2.2-2.5,2.1c-5.8-0.1-11.5,0.1-17.3-0.1
		c-5.2-0.2-7.7-2.8-7.8-8.1C507.3,509.6,507.4,503.6,507.4,497.7z"/>
	<path class="st6" d="M416,500.5c0,6.8,0,13.6,0,20.4c0,1.5,0.2,2.9-2.1,2.8c-2-0.1-2-1.2-2-2.6c0-13.7,0-27.4,0-41.1
		c0-1.4,0-2.6,2-2.7c2.2-0.1,2.1,1.3,2.1,2.8C416,486.9,416,493.7,416,500.5z"/>
</g>
</svg>
